<svg xmlns="http://www.w3.org/2000/svg" width="47" height="47" viewBox="0 0 47 47">
    <g fill="none" fill-rule="evenodd" transform="translate(1 1)">
        <circle cx="22.5" cy="22.5" r="22.5" stroke="#CFD8E8" stroke-width=".6"/>
        <path fill="#FFC80A" fill-rule="nonzero" d="M31.734 16.955a.589.589 0 0 0-.68.032L26.183 20.8l-3.106-3.727a.608.608 0 0 0-.903 0L19.069 20.8l-4.872-3.813a.59.59 0 0 0-.935.599l2.067 8.727a2.558 2.558 0 0 0 2.555 2.482h9.483a2.558 2.558 0 0 0 2.555-2.482l2.067-8.727a.588.588 0 0 0-.255-.631zm-2.972 9.15a.613.613 0 0 0-.016.135 1.38 1.38 0 0 1-1.378 1.378h-9.484a1.38 1.38 0 0 1-1.379-1.378.593.593 0 0 0-.015-.136l-1.695-7.156 3.998 3.13c.251.197.612.158.815-.087l3.018-3.622 3.018 3.622a.588.588 0 0 0 .815.086l3.998-3.129-1.695 7.156z"/>
        <path fill="#FFC80A" d="M14 18l5 4 4-4 3 4 5-4-1 6-1 3-1 1H18l-2-1-1-4z"/>
        <path fill="#FFF" fill-rule="nonzero" d="M22.209 22.415a.593.593 0 0 0 0 .83c.111.111.259.17.418.17a.594.594 0 0 0 .418-.17.6.6 0 0 0 .17-.419.596.596 0 0 0-.17-.411c-.218-.218-.625-.218-.836 0z"/>
    </g>
</svg>
